<svg xmlns="http://www.w3.org/2000/svg" width="906" height="13" viewBox="0 0 906 13" fill="none"><path d="M906 13H0V0H12C12 6.62742 17.3726 12 24 12C30.6274 12 36 6.62742 36 0H51C51 6.62742 56.3726 12 63 12C69.6274 12 75 6.62742 75 0H90C90 6.62742 95.3726 12 102 12C108.627 12 114 6.62742 114 0H129C129 6.62742 134.373 12 141 12C147.627 12 153 6.62742 153 0H168C168 6.62742 173.373 12 180 12C186.627 12 192 6.62742 192 0H207C207 6.62742 212.373 12 219 12C225.627 12 231 6.62742 231 0H246C246 6.62742 251.373 12 258 12C264.627 12 270 6.62742 270 0H285C285 6.62742 290.373 12 297 12C303.627 12 309 6.62742 309 0H324C324 6.62742 329.373 12 336 12C342.627 12 348 6.62742 348 0H363C363 6.62742 368.373 12 375 12C381.627 12 387 6.62742 387 0H402C402 6.62742 407.373 12 414 12C420.627 12 426 6.62742 426 0H441C441 6.62742 446.373 12 453 12C459.627 12 465 6.62742 465 0H480C480 6.62742 485.373 12 492 12C498.627 12 504 6.62742 504 0H519C519 6.62742 524.373 12 531 12C537.627 12 543 6.62742 543 0H558C558 6.62742 563.373 12 570 12C576.627 12 582 6.62742 582 0H597C597 6.62742 602.373 12 609 12C615.627 12 621 6.62742 621 0H636C636 6.62742 641.373 12 648 12C654.627 12 660 6.62742 660 0H675C675 6.62742 680.373 12 687 12C693.627 12 699 6.62742 699 0H714C714 6.62742 719.373 12 726 12C732.627 12 738 6.62742 738 0H753C753 6.62742 758.373 12 765 12C771.627 12 777 6.62742 777 0H792C792 6.62742 797.373 12 804 12C810.627 12 816 6.62742 816 0H831C831 6.62742 836.373 12 843 12C849.627 12 855 6.62742 855 0H870C870 6.62742 875.373 12 882 12C888.627 12 894 6.62742 894 0H906V13Z" fill="white"></path></svg>