<svg xmlns="http://www.w3.org/2000/svg" width="414" height="476" viewBox="0 0 414 476" fill="none"><path d="M406.302 475H7.97388V427.697L1.40672 411.929H2.06343C2.78882 411.929 3.37686 411.341 3.37686 410.616V409.302C3.37686 408.576 2.78882 407.988 2.06343 407.988H4.03358C6.20975 407.988 7.97388 406.223 7.97388 404.046C7.97388 401.869 6.20975 400.104 4.03358 400.104H2.06343C2.78882 400.104 3.37686 399.515 3.37686 398.79V397.476C3.37686 396.75 2.78882 396.162 2.06343 396.162H1.40672L4.69031 390.906V149.136L1.40672 143.88C2.13211 143.88 2.72015 143.291 2.72015 142.566V141.252C2.72015 140.526 2.13211 139.938 1.40672 139.938H3.37686C5.55303 139.938 7.31717 138.173 7.31717 135.996C7.31717 133.819 5.55303 132.054 3.37686 132.054H1.40672C2.13211 132.054 2.72015 131.466 2.72015 130.74V129.426C2.72015 128.7 2.13211 128.112 1.40672 128.112H0.75L7.31717 112.344V65.0415C12.8616 65.0415 18.9927 65.7003 26.623 64.38C34.2685 63.057 43.4238 59.7512 55.1132 51.8453C67.4154 43.5249 78.6729 37.1837 87.9836 32.9378C97.3093 28.685 104.64 26.5534 109.104 26.6072C118.028 27.0177 123.473 28.4251 126.656 30.2463C128.244 31.1547 129.258 32.1608 129.867 33.1886C130.474 34.2149 130.687 35.2817 130.644 36.3311C130.557 38.4447 129.428 40.4913 128.361 41.9341C128.066 42.3333 127.778 42.6813 127.523 42.9683C127.55 42.5343 127.483 42.0891 127.361 41.6845C127.235 41.2674 127.046 40.8717 126.818 40.5431C126.592 40.2182 126.314 39.9385 126.001 39.7822C125.627 39.5948 125.056 39.4446 124.388 39.3549C123.713 39.2644 122.916 39.2328 122.076 39.2959C120.403 39.4216 118.519 39.9271 117.104 41.1405C115.917 42.1577 115.302 43.1106 114.993 44.0828C114.688 45.0426 114.69 45.9974 114.69 46.9744V47.3029H115.019C116.496 47.3029 117.423 47.5856 117.978 47.9939C118.518 48.3905 118.745 48.9341 118.762 49.5703C118.779 50.2198 118.575 50.9586 118.247 51.6901C117.921 52.4178 117.482 53.1153 117.056 53.6739L116.695 54.1474L117.288 54.2C130.425 55.3644 139.142 47.7022 144.631 40.146C147.377 36.366 149.327 32.5995 150.628 29.9506C151.282 28.6179 151.763 27.5874 152.105 26.9627C152.166 26.8525 152.221 26.7583 152.269 26.6791C152.465 26.9944 152.812 27.2339 153.216 27.4131C153.761 27.6546 154.489 27.823 155.346 27.9148C157.065 28.0987 159.367 27.9821 161.916 27.4638C167.014 26.4271 173.162 23.7714 177.654 18.6111C181.128 14.6212 184.762 13.8186 187.888 14.3908C190.937 14.9489 193.543 16.8258 195.068 18.4501C194.73 19.0801 194.186 19.9387 193.615 20.8901C192.989 21.9314 192.339 23.0729 191.958 24.0678C191.768 24.5643 191.637 25.0461 191.618 25.4736C191.599 25.9026 191.693 26.3207 192.006 26.6233C192.315 26.9216 192.774 27.0461 193.344 27.0371C193.916 27.028 194.649 26.8844 195.566 26.5925C201.99 24.5475 203.995 19.4936 204.331 15.4667C204.406 14.5699 204.044 13.7005 203.461 12.9036C202.877 12.1053 202.051 11.3501 201.138 10.6677C199.616 9.52954 197.815 8.56869 196.392 7.9268C203.451 5.52564 205.842 2.05532 206.302 0.328492V0" stroke="#D9D9D9"></path><path d="M405.945 475.5V427.697L412.512 411.929C411.786 411.929 411.198 411.341 411.198 410.616V409.302C411.198 408.576 411.786 407.988 412.512 407.988H409.885C407.709 407.988 405.945 406.223 405.945 404.046C405.945 401.869 407.709 400.104 409.885 400.104H412.512C411.786 400.104 411.198 399.515 411.198 398.79V397.476C411.198 396.75 411.786 396.162 412.512 396.162L409.228 390.906V149.136L412.512 143.88H411.855C411.13 143.88 410.542 143.291 410.542 142.566V141.252C410.542 140.526 411.13 139.938 411.855 139.938H409.228C407.052 139.938 405.288 138.173 405.288 135.996C405.288 133.819 407.052 132.054 409.228 132.054H411.855C411.13 132.054 410.542 131.466 410.542 130.74V129.426C410.542 128.746 411.059 128.186 411.721 128.119L411.855 128.112L405.288 112.344V65.0415C399.743 65.0415 393.612 65.7004 385.982 64.38C378.336 63.057 369.181 59.7512 357.492 51.8453C345.19 43.5249 333.932 37.1837 324.621 32.9378C315.296 28.685 307.965 26.5541 303.501 26.6079C294.577 27.0183 289.132 28.4251 285.949 30.2463C284.361 31.1547 283.347 32.1608 282.738 33.1886C282.131 34.2149 281.918 35.2817 281.961 36.3311C282.048 38.4447 283.177 40.4913 284.244 41.9341C284.539 42.3333 284.827 42.6813 285.082 42.9683C285.055 42.5343 285.122 42.0891 285.244 41.6845C285.37 41.2674 285.559 40.8717 285.787 40.5431C286.013 40.2182 286.291 39.9385 286.604 39.7822C286.978 39.5948 287.549 39.4446 288.217 39.3549C288.892 39.2644 289.689 39.2328 290.529 39.2959C292.202 39.4216 294.086 39.9271 295.501 41.1405C296.688 42.1577 297.303 43.1106 297.612 44.0828C297.917 45.0426 297.915 45.9974 297.915 46.9744V47.3029H297.586C296.109 47.3029 295.182 47.5856 294.627 47.9939C294.087 48.3905 293.86 48.9341 293.843 49.5703C293.826 50.2198 294.03 50.9586 294.358 51.6901C294.685 52.4178 295.123 53.1153 295.549 53.6739L295.91 54.1474L295.317 54.2C282.18 55.3644 273.463 47.7022 267.974 40.146C265.228 36.366 263.278 32.5995 261.977 29.9506C261.323 28.6179 260.842 27.5874 260.5 26.9627C260.439 26.8525 260.384 26.7583 260.336 26.6791C260.14 26.9944 259.793 27.2339 259.389 27.4131C258.844 27.6546 258.116 27.823 257.259 27.9148C255.54 28.0987 253.238 27.9821 250.689 27.4638C245.591 26.4271 239.443 23.7714 234.951 18.6111C231.477 14.6212 227.843 13.8186 224.717 14.3908C221.668 14.9489 219.062 16.8258 217.537 18.4501C217.875 19.0801 218.419 19.9387 218.99 20.8901C219.616 21.9314 220.266 23.0729 220.647 24.0678C220.837 24.5643 220.968 25.0461 220.987 25.4736C221.006 25.9026 220.912 26.3207 220.599 26.6233C220.29 26.9216 219.831 27.0461 219.261 27.0371C218.689 27.028 217.956 26.8844 217.039 26.5925C210.615 24.5475 208.61 19.4936 208.274 15.4667C208.199 14.5699 208.561 13.7005 209.144 12.9036C209.727 12.1053 210.554 11.3501 211.467 10.6677C212.989 9.52954 214.79 8.56869 216.213 7.9268C209.154 5.52564 206.763 2.05532 206.303 0.328492V0" stroke="#D9D9D9"></path></svg>