<svg xmlns="http://www.w3.org/2000/svg" width="1764" height="2411" viewBox="0 0 1764 2411" fill="none"><path d="M278.418 350.96C278.418 361.945 275.732 370.849 272.418 370.85H275.267C277.006 370.85 278.417 375.526 278.417 381.293C278.417 387.06 277.006 391.733 275.267 391.733H273.086L276.315 414.481C277.612 418.707 278.417 424.587 278.417 431.091C278.417 436.778 277.802 441.99 276.78 446.034L273.086 472.058H275.267C277.006 472.058 278.417 476.735 278.417 482.502C278.417 488.268 277.006 492.942 275.267 492.942H272.321C275.486 493.495 278 502.175 278 512.802V2411H242V512.802C242 502.175 244.514 493.495 247.679 492.942H244.736C242.997 492.942 241.586 488.268 241.586 482.502C241.586 476.735 242.997 472.058 244.736 472.058H246.917L243.552 448.359C243.333 446.815 243.043 445.396 242.758 443.975C242.017 440.286 241.586 435.855 241.586 431.091C241.586 425.867 242.105 421.044 242.981 417.158C243.407 415.273 243.842 413.39 244.145 411.26L246.917 391.733H244.736C242.997 391.733 241.586 387.06 241.586 381.293C241.586 375.526 242.997 370.85 244.736 370.85H247.587C244.273 370.85 241.587 361.945 241.587 350.96L241.586 279.282L240.241 271.593C212.115 111.65 190.819 47.4641 0 47.4641V11H520V47.4641C326.152 47.4641 307.252 113.704 278.414 279.282H278.418V350.96Z" fill="url(#paint0_linear_2004_252)"></path><path d="M1522.42 350.96C1522.42 361.945 1519.73 370.849 1516.42 370.85H1519.27C1521.01 370.85 1522.42 375.526 1522.42 381.293C1522.42 387.06 1521.01 391.733 1519.27 391.733H1517.09L1520.32 414.481C1521.61 418.707 1522.42 424.587 1522.42 431.091C1522.42 436.778 1521.8 441.99 1520.78 446.034L1517.09 472.058H1519.27C1521.01 472.058 1522.42 476.735 1522.42 482.502C1522.42 488.268 1521.01 492.942 1519.27 492.942H1516.32C1519.49 493.495 1522 502.175 1522 512.802V2411H1486V512.802C1486 502.175 1488.51 493.495 1491.68 492.942H1488.74C1487 492.942 1485.59 488.268 1485.59 482.502C1485.59 476.735 1487 472.058 1488.74 472.058H1490.92L1487.55 448.359C1487.33 446.815 1487.04 445.396 1486.76 443.975C1486.02 440.286 1485.59 435.855 1485.59 431.091C1485.59 425.867 1486.11 421.044 1486.98 417.158C1487.41 415.273 1487.84 413.39 1488.14 411.26L1490.92 391.733H1488.74C1487 391.733 1485.59 387.06 1485.59 381.293C1485.59 375.526 1487 370.85 1488.74 370.85H1491.59C1488.27 370.85 1485.59 361.945 1485.59 350.96L1485.59 279.282L1484.24 271.593C1456.11 111.65 1434.82 47.4641 1244 47.4641V11H1764V47.4641C1570.15 47.4641 1551.25 113.704 1522.41 279.282H1522.42V350.96Z" fill="url(#paint1_linear_2004_252)"></path><rect x="520" y="11" width="724" height="11" fill="#FFF4DE"></rect><rect x="162" width="1440" height="11" fill="#FFF4DE"></rect><defs><linearGradient id="paint0_linear_2004_252" x1="260" y1="11" x2="260" y2="1361.12" gradientUnits="userSpaceOnUse"><stop stop-color="#FFF4DE"></stop><stop offset="1" stop-color="#FFFCEE"></stop></linearGradient><linearGradient id="paint1_linear_2004_252" x1="1504" y1="11" x2="1504" y2="2411" gradientUnits="userSpaceOnUse"><stop stop-color="#FFF4DE"></stop><stop offset="1" stop-color="#FFFCEE"></stop></linearGradient></defs></svg>